Coordinates
version=1
nRows=16
nColumns=36
inDegrees=yes

Units are S.I. units (second, meters, Newtons, ...)
If the header above contains a line with 'inDegrees', this indicates whether rotational values are in degrees (yes) or radians (no).

endheader
time	pelvis_tilt	pelvis_list	pelvis_rotation	pelvis_tx	pelvis_ty	pelvis_tz	hip_flexion_r	hip_adduction_r	hip_rotation_r	knee_angle_r	knee_angle_r_beta	ankle_angle_r	subtalar_angle_r	mtp_angle_r	hip_flexion_l	hip_adduction_l	hip_rotation_l	knee_angle_l	knee_angle_l_beta	ankle_angle_l	subtalar_angle_l	mtp_angle_l	lumbar_extension	lumbar_bending	lumbar_rotation	arm_flex_r	arm_add_r	arm_rot_r	elbow_flex_r	pro_sup_r	arm_flex_l	arm_add_l	arm_rot_l	elbow_flex_l	pro_sup_l
      0.00000000	      6.21973697	     -3.14863137	     -0.44872860	     -0.98019347	      1.22957792	     -0.05992453	     -7.29975378	      1.78184366	     -2.90191749	      6.87062189	      0.11991497	     -0.58288259	    -17.15950421	     -5.61404272	     -8.22681990	     -4.88291468	      0.08121653	      5.86896733	      0.10243280	     10.03463172	     -6.94871971	     -5.61404272	    -16.71550379	      4.74867293	      0.70433575	      8.10196568	    -13.98204974	      1.62330836	     29.90364962	     81.56239343	      3.03613568	    -11.83484351	      8.94346431	     31.40335207	     71.65605336
      0.00416670	      3.25215489	     -2.13444478	     -0.55005275	     -0.97563610	      1.22621029	     -0.06022748	     -3.88848311	      1.06321924	     -2.28192071	      7.23206766	      0.12622339	      3.62392345	    -14.08673857	     -5.66449253	     -3.82929489	     -3.41023014	      0.45033025	      7.08943467	      0.12373398	      9.96525761	     -4.98334749	     -5.66449253	    -12.06456690	      3.74777171	      0.16577868	      6.89007050	    -13.57974991	     -0.20994851	     29.59745052	     81.41469450	      2.67891183	    -11.67117238	      6.44933222	     29.62584832	     71.46190083
      0.00833330	      2.77330912	     -1.33163616	     -0.74089272	     -0.97562590	      1.22371221	     -0.05892729	     -3.67698383	      0.14437327	     -3.38496925	      6.46266337	      0.11279475	      4.83197769	    -12.39663911	     -5.90736791	     -3.33055633	     -2.76976587	     -0.73751401	      7.13499126	      0.12452909	      9.43384617	     -4.67825236	     -5.90736791	    -11.22970565	      2.51180033	      0.05395416	      6.52229848	    -13.36479172	     -1.00568798	     30.21620159	     79.84577728	      2.69267615	    -12.64108268	      6.17436715	     29.69806850	     70.81406373
      0.01250000	      3.23736078	     -0.94855739	     -0.75430901	     -0.97486588	      1.22563343	     -0.05919084	     -4.49910541	     -0.32209975	     -3.94071839	      5.92609915	      0.10342994	      5.97759913	    -11.19055302	     -6.17539752	     -4.35283727	     -2.33301648	     -1.06225310	      6.45415576	      0.11264627	      9.23816439	     -4.85310657	     -6.17539752	    -11.72006485	      1.90719056	      0.21128117	      6.14517535	    -13.28762401	     -1.66803333	     30.83203197	     77.67199510	      2.92866948	    -13.36856231	      7.15004485	     29.85370132	     70.06686223
      0.01666670	      3.51848313	     -0.85599532	     -0.78605464	     -0.97620921	      1.22975955	     -0.05862257	     -5.06086796	     -0.33019155	     -4.27722468	      5.35470060	      0.09345716	      6.70633523	    -10.16160171	     -6.48291506	     -4.92378253	     -2.17303382	     -0.86444737	      5.91299100	      0.10320116	      9.01904707	     -5.02829901	     -6.48291506	    -12.16017497	      1.76629864	      0.72962153	      5.68660242	    -13.31321735	     -2.04628595	     31.37218051	     75.68684728	      3.85194012	    -13.88676558	     10.40596884	     29.08066190	     70.12431229
      0.02083330	      3.92081040	     -0.79863338	     -0.74305979	     -0.97592950	      1.22964965	     -0.05822805	     -5.72509582	     -0.27736654	     -4.25138913	      4.87443827	      0.08507500	      6.87364227	     -9.96736786	     -6.80743684	     -5.48726376	     -2.09760893	     -0.87086693	      5.66286068	      0.09883556	      8.83035397	     -5.13919995	     -6.80743684	    -12.77591391	      1.63069504	      0.92356888	      5.50752549	    -13.25913296	     -2.28714197	     31.90117102	     72.99642799	      4.28551214	    -14.08803837	     11.21070791	     29.19830708	     68.60974154
      0.02500000	      4.23043475	     -0.77605178	     -0.60843141	     -0.97573730	      1.23144890	     -0.05838200	     -6.31975579	     -0.22057836	     -4.38726702	      4.39174664	      0.07665044	      6.91650476	     -9.67974392	     -6.92575765	     -5.88471952	     -2.03906125	     -0.55837633	      5.42710086	      0.09472078	      8.72871356	     -5.21837326	     -6.92575765	    -13.31321917	      1.59780063	      0.83382425	      5.48667623	    -13.20594025	     -2.46214661	     32.34272568	     71.52545492	      4.50444570	    -14.13106636	     11.33639456	     29.41644569	     67.66706325
      0.02916670	      4.41040864	     -0.78124973	     -0.58727881	     -0.97637281	      1.22752430	     -0.05797414	     -6.60388916	     -0.13934061	     -4.11443206	      4.16425323	      0.07267993	      6.62030965	    -10.25036911	     -6.92415309	     -6.00773040	     -2.06796432	     -0.86688876	      5.46971461	      0.09546453	      9.10284320	     -4.37023846	     -6.92415309	    -13.57500152	      1.55363467	      0.91553435	      5.45254518	    -13.22412968	     -2.32842039	     32.51274757	     71.77477790	      4.86844684	    -14.20207016	     12.04642669	     29.21546992	     67.93637891
      0.03333330	      4.54711213	     -0.76908315	     -0.43961953	     -0.97542625	      1.22670631	     -0.05831560	     -6.91316381	     -0.11249304	     -4.27403201	      3.90801784	      0.06820778	      6.78251731	    -10.14445182	     -6.97901109	     -6.15001965	     -2.04642557	     -0.27330679	      5.39823867	      0.09421704	      8.87916196	     -5.03376159	     -6.97901109	    -13.80367099	      1.52753343	      0.85348650	      5.35696506	    -13.19702995	     -2.45708628	     32.82011453	     71.02160405	      4.94733072	    -14.23275281	     12.05610896	     29.47005612	     67.37479815
      0.03750000	      4.53300949	     -0.77334487	     -0.30704884	     -0.97527647	      1.22895727	     -0.05902401	     -7.06027575	     -0.05795535	     -4.22462389	      3.68945185	      0.06439308	      6.74156306	    -10.24828173	     -7.08004095	     -6.11710210	     -2.04072479	      0.05941398	      5.36546362	      0.09364501	      8.73578392	     -5.28454150	     -7.08004095	    -13.74528073	      1.54523015	      0.82438332	      5.27776055	    -13.21758517	     -2.26681148	     32.77862177	     70.64663723	      5.11527364	    -14.22045924	     12.61593165	     29.26604527	     66.97812017
      0.04166670	      4.57567462	     -0.77147500	     -0.15459897	     -0.97557303	      1.22846327	     -0.05903667	     -7.23610902	     -0.01974346	     -4.25618326	      3.50170719	      0.06111632	      6.63575951	    -10.41814512	     -7.21450762	     -6.10662783	     -2.04341736	      0.21455819	      5.43989069	      0.09494400	      8.73798735	     -5.32678176	     -7.21450762	    -13.82466361	      1.55708356	      0.71760875	      5.15755180	    -13.22515790	     -2.12851796	     33.04303284	     69.46150667	      5.10798702	    -14.23463510	     12.73433367	     29.46587469	     66.04236846
      0.04583330	      4.60326932	     -0.76046846	     -0.10537975	     -0.97493051	      1.23208022	     -0.05951930	     -7.39967348	     -0.00032851	     -4.13575215	      3.25952345	      0.05688942	      6.59718942	    -10.36318306	     -7.25149187	     -6.19797971	     -2.02838907	      0.34373348	      5.34361453	      0.09326367	      8.53801773	     -5.30854233	     -7.25149187	    -13.87549347	      1.53671875	      0.69414761	      5.05279219	    -13.18085003	     -2.14617276	     33.21353014	     68.92989881	      5.08411064	    -14.21730738	     12.68670228	     29.71494668	     65.64642476
      0.05000000	      4.65662095	     -0.72287988	     -0.01772510	     -0.97608214	      1.23255615	     -0.05957032	     -7.55721516	     -0.03627981	     -4.30476123	      3.08006048	      0.05375720	      6.38128420	    -10.38515648	     -7.28247195	     -6.24429114	     -1.98037852	      0.52794573	      5.38222220	      0.09393750	      8.30066321	     -5.43697818	     -7.28247195	    -13.99981269	      1.52381769	      0.62059519	      5.05314379	    -13.14827870	     -2.12882414	     33.28127348	     68.23787454	      5.14283666	    -14.20686781	     12.62054732	     29.84739863	     65.16868050
      0.05416670	      4.54793196	     -0.68041602	     -0.04527020	     -0.97534583	      1.23075061	     -0.05942906	     -7.46204864	     -0.07228969	     -4.14575643	      2.93676811	      0.05125627	      6.16801476	    -10.62516914	     -7.32249009	     -6.14137583	     -1.94646563	      0.46175320	      5.33354392	      0.09308790	      8.26301585	     -5.14614787	     -7.32249009	    -13.76089457	      1.45998493	      0.63649557	      5.14990655	    -13.22107803	     -1.51199080	     32.77201334	     68.19190919	      5.34169059	    -14.20644774	     13.21774528	     29.41468401	     65.12263104
      0.05833330	      4.64443086	     -0.63227310	     -0.03111558	     -0.97471197	      1.23409372	     -0.05935679	     -7.68658987	     -0.10521214	     -4.17542795	      2.68987551	      0.04694718	      5.98374504	    -10.60266686	     -7.33863419	     -6.36169370	     -1.90089125	      0.57502847	      5.06693830	      0.08843476	      7.96682498	     -5.05523389	     -7.33863419	    -13.92846087	      1.38967892	      0.62049895	      5.05541275	    -13.16435265	     -1.58042628	     33.01388355	     67.74436062	      5.30949758	    -14.22000341	     13.02002672	     29.75112827	     64.81211186
      0.06250000	      4.66395225	     -0.59839773	     -0.04019112	     -0.97459073	      1.22973713	     -0.05913338	     -7.75029057	     -0.11601949	     -4.12483248	      2.55729785	      0.04463327	      5.89410488	    -10.75605665	     -7.34545501	     -6.40736144	     -1.88717005	      0.41205796	      5.01233318	      0.08748172	      8.10419301	     -4.70084170	     -7.34545501	    -13.89118760	      1.33669687	      0.63653748	      5.14641088	    -13.18113452	     -1.24298929	     32.72819211	     68.13179953	      5.36440746	    -14.24630549	     13.13029907	     29.66351807	     65.07396593
